<svg width="56" height="57" viewBox="0 0 56 57" fill="none" xmlns="http://www.w3.org/2000/svg">
<path d="M28.0001 35.6889C25.5634 35.6889 23.1814 34.9663 21.1554 33.6126C19.1294 32.2589 17.5503 30.3347 16.6179 28.0836C15.6854 25.8324 15.4414 23.3552 15.9168 20.9654C16.3922 18.5755 17.5655 16.3803 19.2885 14.6573C21.0115 12.9344 23.2067 11.761 25.5965 11.2856C27.9864 10.8103 30.4635 11.0542 32.7147 11.9867C34.9659 12.9192 36.89 14.4983 38.2438 16.5243C39.5975 18.5503 40.3201 20.9322 40.3201 23.3689C40.3165 26.6353 39.0174 29.7668 36.7077 32.0765C34.398 34.3862 31.2664 35.6853 28.0001 35.6889ZM28.0001 13.2889C26.0064 13.2889 24.0576 13.8801 22.3999 14.9877C20.7423 16.0953 19.4503 17.6696 18.6874 19.5114C17.9244 21.3533 17.7248 23.3801 18.1137 25.3354C18.5027 27.2907 19.4627 29.0868 20.8724 30.4965C22.2821 31.9062 24.0782 32.8663 26.0335 33.2552C27.9889 33.6441 30.0156 33.4445 31.8575 32.6816C33.6994 31.9187 35.2737 30.6267 36.3813 28.969C37.4889 27.3114 38.0801 25.3625 38.0801 23.3689C38.0801 20.6955 37.0181 18.1316 35.1277 16.2413C33.2373 14.3509 30.6734 13.2889 28.0001 13.2889ZM28.0001 39.1833L27.9329 39.2729C27.9522 39.2584 27.9758 39.2505 28.0001 39.2505C28.0243 39.2505 28.0479 39.2584 28.0673 39.2729L28.0001 39.1833Z" fill="#190AC3"/>
<path d="M44.464 19.9417C43.9187 19.5403 43.4549 19.0385 43.0976 18.4633C43.043 17.7536 43.1189 17.0399 43.3216 16.3577C43.5773 15.7186 43.6936 15.0323 43.6627 14.3447C43.6318 13.6571 43.4544 12.984 43.1424 12.3705C42.6515 11.88 42.0624 11.4988 41.4139 11.2517C40.7654 11.0047 40.0721 10.8974 39.3792 10.9369C38.6793 10.944 37.9853 10.8068 37.3408 10.5337C36.8805 10.0031 36.5303 9.38637 36.3104 8.71927C35.7728 7.46487 35.168 6.03127 33.7792 5.58327C33.1077 5.47194 32.4201 5.50633 31.7631 5.68412C31.1061 5.86191 30.495 6.17892 29.9712 6.61367C29.3799 7.03499 28.7093 7.33217 28 7.48727C27.2907 7.33217 26.6202 7.03499 26.0288 6.61367C25.5051 6.17892 24.894 5.86191 24.2369 5.68412C23.5799 5.50633 22.8923 5.47194 22.2208 5.58327C20.832 6.03127 20.2272 7.46487 19.6896 8.71927C19.4698 9.38637 19.1195 10.0031 18.6592 10.5337C18.0147 10.8068 17.3208 10.944 16.6208 10.9369C15.928 10.8974 15.2346 11.0047 14.5861 11.2517C13.9376 11.4988 13.3486 11.88 12.8576 12.3705C12.5456 12.984 12.3682 13.6571 12.3373 14.3447C12.3064 15.0323 12.4227 15.7186 12.6784 16.3577C12.8811 17.0399 12.957 17.7536 12.9024 18.4633C12.5452 19.0385 12.0814 19.5403 11.536 19.9417C10.9388 20.319 10.4297 20.8203 10.0433 21.4116C9.65677 22.0029 9.40194 22.6704 9.29602 23.3689C9.40194 24.0673 9.65677 24.7348 10.0433 25.3261C10.4297 25.9174 10.9388 26.4187 11.536 26.7961C12.0814 27.1975 12.5452 27.6992 12.9024 28.2745C12.957 28.9841 12.8811 29.6978 12.6784 30.3801C12.4227 31.0191 12.3064 31.7054 12.3373 32.393C12.3682 33.0806 12.5456 33.7537 12.8576 34.3673C13.3295 34.8518 13.8992 35.2303 14.5288 35.4774C15.1583 35.7246 15.8333 35.8349 16.5088 35.8009H16.6208C17.3208 35.7937 18.0147 35.931 18.6592 36.2041C18.7372 36.2595 18.8054 36.3277 18.8608 36.4057C19.2042 36.906 19.4827 37.448 19.6896 38.0185C20.2272 39.2729 20.832 40.7065 22.2208 41.1545C22.6774 41.2989 23.1638 41.3221 23.632 41.2217C24.488 40.9959 25.2987 40.6246 26.0288 40.1241C26.6056 39.7254 27.2511 39.4368 27.9328 39.2729L28 39.1833L28.0672 39.2729C28.7489 39.4368 29.3945 39.7254 29.9712 40.1241C30.7064 40.6157 31.5156 40.9862 32.368 41.2217C32.5739 41.2673 32.7843 41.2899 32.9952 41.2889C33.262 41.286 33.5267 41.2407 33.7792 41.1545C35.168 40.7065 35.7728 39.2729 36.3104 38.0185C36.5173 37.448 36.7958 36.906 37.1392 36.4057C37.1947 36.3277 37.2628 36.2595 37.3408 36.2041C37.9853 35.931 38.6793 35.7937 39.3792 35.8009H39.4912C40.1667 35.8349 40.8417 35.7246 41.4713 35.4774C42.1008 35.2303 42.6705 34.8518 43.1424 34.3673C43.4544 33.7537 43.6318 33.0806 43.6627 32.393C43.6936 31.7054 43.5773 31.0191 43.3216 30.3801C43.1189 29.6978 43.043 28.9841 43.0976 28.2745C43.4549 27.6992 43.9187 27.1975 44.464 26.7961C45.0612 26.4187 45.5703 25.9174 45.9568 25.3261C46.3433 24.7348 46.5981 24.0673 46.704 23.3689C46.5981 22.6704 46.3433 22.0029 45.9568 21.4116C45.5703 20.8203 45.0612 20.319 44.464 19.9417ZM43.008 25.0937C42.1253 25.7326 41.423 26.5892 40.9696 27.5801C40.7396 28.6744 40.8014 29.81 41.1488 30.8729C41.328 31.6569 41.5744 32.7097 41.328 33.0457C41.0816 33.3817 39.984 33.4937 39.1776 33.5609C38.4883 33.6017 37.8052 33.7143 37.1392 33.8969C37.1168 33.8969 37.0944 33.9193 37.072 33.9193C36.6925 34.014 36.335 34.1813 36.0192 34.4121C35.1983 35.1416 34.5873 36.0774 34.2496 37.1225C33.936 37.8841 33.5104 38.8921 33.0848 39.0265C32.7264 39.1385 31.7856 38.6009 31.1136 38.1977C30.5121 37.8148 29.8744 37.4922 29.2096 37.2345C29.1648 37.2345 29.1424 37.2121 29.12 37.2121C29.0369 37.1689 28.9449 37.1458 28.8512 37.1449C28.8288 37.1225 28.8288 37.1225 28.8064 37.1225C28.2792 36.9731 27.7208 36.9731 27.1936 37.1225C27.1712 37.1225 27.1712 37.1225 27.1488 37.1449C27.0552 37.1458 26.9631 37.1689 26.88 37.2121C26.8576 37.2121 26.8352 37.2345 26.7904 37.2345C26.1257 37.4922 25.4879 37.8148 24.8864 38.1977C24.2144 38.6009 23.2736 39.1609 22.9152 39.0265C22.4896 38.8921 22.064 37.8841 21.7504 37.1225C21.4127 36.0774 20.8018 35.1416 19.9808 34.4121C19.7115 34.2102 19.408 34.0584 19.0848 33.9641C18.9659 33.9034 18.8368 33.8654 18.704 33.8521C18.0868 33.6988 17.4571 33.6014 16.8224 33.5609C16.016 33.4937 14.9184 33.3817 14.672 33.0457C14.4256 32.7097 14.672 31.6569 14.8512 30.8729C15.1986 29.81 15.2604 28.6744 15.0304 27.5801C14.577 26.5892 13.8748 25.7326 12.992 25.0937C12.3424 24.5337 11.536 23.8169 11.536 23.3689C11.536 22.9209 12.3424 22.2041 12.992 21.6217C13.8785 20.9962 14.5822 20.1457 15.0304 19.1577C15.2604 18.0633 15.1986 16.9278 14.8512 15.8649C14.672 15.0809 14.4256 14.0281 14.672 13.6921C14.9184 13.3561 16.016 13.2441 16.8224 13.1769C17.9323 13.1799 19.0228 12.886 19.9808 12.3257C20.8018 11.5961 21.4127 10.6603 21.7504 9.61527C22.064 8.85367 22.4896 7.84567 22.9152 7.71127C22.9488 7.69095 22.9884 7.68302 23.0272 7.68887C23.693 7.85865 24.3228 8.14698 24.8864 8.54007C25.8022 9.20202 26.876 9.61145 28 9.72727C29.124 9.61145 30.1978 9.20202 31.1136 8.54007C31.7856 8.13687 32.7264 7.59927 33.0848 7.71127C33.5104 7.84567 33.936 8.85367 34.2496 9.61527C34.5873 10.6603 35.1983 11.5961 36.0192 12.3257C36.9773 12.886 38.0678 13.1799 39.1776 13.1769C39.984 13.2441 41.0816 13.3561 41.328 13.6921C41.5744 14.0281 41.328 15.0809 41.1488 15.8649C40.8014 16.9278 40.7396 18.0633 40.9696 19.1577C41.4179 20.1457 42.1215 20.9962 43.008 21.6217C43.6576 22.2041 44.464 22.9209 44.464 23.3689C44.464 23.8169 43.6576 24.5337 43.008 25.0937Z" fill="#190AC3"/>
<path d="M27.9328 39.2729L19.488 50.3385C19.3829 50.4767 19.2474 50.5889 19.0921 50.6666C18.9368 50.7443 18.7657 50.7853 18.592 50.7865C18.4936 50.7825 18.3959 50.7675 18.3008 50.7417C18.0878 50.6869 17.8955 50.5706 17.7481 50.4073C17.6007 50.2439 17.5047 50.0408 17.472 49.8233L16.7776 44.6489L11.6256 45.3433C11.4065 45.3698 11.1845 45.3318 10.9866 45.2339C10.7888 45.136 10.6239 44.9825 10.5121 44.7922C10.4003 44.6019 10.3465 44.3831 10.3573 44.1627C10.3681 43.9422 10.443 43.7297 10.5728 43.5513L16.5088 35.8009H16.6208C17.3208 35.7937 18.0147 35.931 18.6592 36.2041C18.7372 36.2595 18.8054 36.3277 18.8608 36.4057L14 42.7673L17.584 42.2745C17.8802 42.2383 18.1788 42.3185 18.417 42.4982C18.6551 42.6779 18.8143 42.943 18.8608 43.2377L19.3312 46.8441L23.632 41.2217C24.488 40.9958 25.2987 40.6246 26.0288 40.1241C26.6056 39.7253 27.2511 39.4367 27.9328 39.2729ZM45.4944 44.7833C45.3848 44.9775 45.2195 45.1346 45.02 45.2344C44.8205 45.3342 44.5957 45.3721 44.3744 45.3433L39.2224 44.6489L38.528 49.8233C38.4954 50.0408 38.3993 50.2439 38.2519 50.4073C38.1045 50.5706 37.9123 50.6869 37.6992 50.7417C37.6042 50.7675 37.5065 50.7825 37.408 50.7865C37.2344 50.7853 37.0633 50.7443 36.908 50.6666C36.7526 50.5889 36.6172 50.4767 36.512 50.3385L28.0672 39.2729C28.749 39.4367 29.3945 39.7253 29.9712 40.1241C30.7064 40.6157 31.5156 40.9862 32.368 41.2217L36.6688 46.8441L37.1392 43.2377C37.1858 42.943 37.3449 42.6779 37.5831 42.4982C37.8213 42.3185 38.1199 42.2383 38.416 42.2745L42 42.7673L37.1392 36.4057C37.1947 36.3277 37.2628 36.2595 37.3408 36.2041C37.9854 35.931 38.6793 35.7937 39.3792 35.8009H39.4912L45.4272 43.5513C45.5578 43.7275 45.6338 43.9382 45.6458 44.1572C45.6577 44.3762 45.6051 44.5939 45.4944 44.7833ZM31.6199 30.1135C31.4386 30.1136 31.2601 30.069 31.1002 29.9836L28 28.3551L24.8999 29.9836C24.7151 30.0803 24.507 30.1236 24.299 30.1084C24.091 30.0933 23.8914 30.0204 23.7226 29.8979C23.5538 29.7755 23.4225 29.6083 23.3436 29.4153C23.2647 29.2222 23.2412 29.011 23.2759 28.8053L23.8672 25.3535L21.3607 22.9097C21.2109 22.7638 21.105 22.579 21.0548 22.376C21.0047 22.1731 21.0123 21.9602 21.0769 21.7614C21.1414 21.5626 21.2603 21.3858 21.4201 21.2511C21.58 21.1163 21.7743 21.029 21.9811 20.9989L25.4464 20.5017L26.9965 17.3657C27.0988 17.1889 27.2458 17.0422 27.4228 16.9402C27.5997 16.8382 27.8003 16.7845 28.0045 16.7845C28.2087 16.7845 28.4093 16.8382 28.5863 16.9402C28.7632 17.0422 28.9102 17.1889 29.0125 17.3657L30.5626 20.5017L34.0279 21.0057C34.2347 21.0357 34.4291 21.123 34.5889 21.2578C34.7487 21.3925 34.8676 21.5693 34.9322 21.7681C34.9967 21.9669 35.0044 22.1798 34.9542 22.3828C34.904 22.5857 34.7981 22.7705 34.6484 22.9164L32.1418 25.3602L32.7332 28.8121C32.7605 28.9728 32.7525 29.1375 32.7096 29.2948C32.6668 29.4521 32.5901 29.5981 32.4849 29.7227C32.3797 29.8473 32.2486 29.9474 32.1008 30.016C31.9529 30.0847 31.7919 30.1203 31.6288 30.1202L31.6199 30.1135ZM28 25.9717C28.181 25.9717 28.3593 26.0155 28.5197 26.0994L30.1325 26.9461L29.8256 25.1541C29.7945 24.9752 29.8075 24.7913 29.8633 24.6184C29.9191 24.4455 30.0161 24.2888 30.146 24.1618L31.4519 22.8917L29.6599 22.6297C29.4803 22.6033 29.3097 22.5336 29.163 22.4267C29.0163 22.3198 28.8978 22.1788 28.8176 22.0159L28.0112 20.3829L27.2048 22.0159C27.1247 22.1788 27.0062 22.3198 26.8594 22.4267C26.7127 22.5336 26.5422 22.6033 26.3626 22.6297L24.5706 22.8917L25.8765 24.1618C26.0064 24.2888 26.1034 24.4455 26.1592 24.6184C26.215 24.7913 26.2279 24.9752 26.1968 25.1541L25.8899 26.9461L27.5028 26.0994C27.6564 26.0189 27.8266 25.9752 28 25.9717Z" fill="#5C50E4"/>
</svg>
