<svg width="24" height="24" viewBox="0 0 24 24" fill="none" xmlns="http://www.w3.org/2000/svg">
<path d="M22.808 6.40179C23.1652 6.91072 23.2455 7.48661 23.0491 8.12947L19.3661 20.2634C19.1964 20.8348 18.8549 21.3147 18.3415 21.7031C17.8281 22.0915 17.2813 22.2857 16.7009 22.2857H4.33929C3.65179 22.2857 2.98884 22.0469 2.35045 21.5692C1.71206 21.0915 1.26786 20.5045 1.01786 19.808C0.803575 19.2098 0.794646 18.6429 0.991075 18.1071C0.991075 18.0714 1.00447 17.9509 1.03125 17.7455C1.05804 17.5402 1.0759 17.375 1.08482 17.25C1.09375 17.1786 1.08036 17.0826 1.04465 16.9621C1.00893 16.8415 0.995539 16.7545 1.00447 16.7009C1.02232 16.6027 1.05804 16.5089 1.11161 16.4196C1.16518 16.3304 1.23884 16.2254 1.33259 16.1049C1.42634 15.9844 1.5 15.8795 1.55357 15.7902C1.75893 15.4509 1.95982 15.0424 2.15625 14.5647C2.35268 14.0871 2.48661 13.6786 2.55804 13.3393C2.58482 13.25 2.58706 13.1161 2.56474 12.9375C2.54241 12.7589 2.54018 12.6339 2.55804 12.5625C2.58482 12.4643 2.66072 12.3393 2.78572 12.1875C2.91072 12.0357 2.98661 11.933 3.0134 11.8795C3.2009 11.558 3.3884 11.1473 3.5759 10.6473C3.7634 10.1473 3.875 9.74554 3.91072 9.44197C3.91965 9.36161 3.90849 9.21875 3.87724 9.01339C3.84599 8.80804 3.84822 8.68304 3.88393 8.63839C3.91965 8.52232 4.01786 8.38616 4.17858 8.22991C4.33929 8.07366 4.4375 7.97322 4.47322 7.92857C4.64286 7.69643 4.83259 7.3192 5.04241 6.79688C5.25224 6.27455 5.375 5.84375 5.41072 5.50447C5.41965 5.43304 5.40625 5.3192 5.37054 5.16295C5.33482 5.0067 5.3259 4.88839 5.34375 4.80804C5.36161 4.73661 5.40179 4.65625 5.46429 4.56697C5.52679 4.47768 5.60715 4.375 5.70536 4.25893C5.80357 4.14286 5.87947 4.04911 5.93304 3.97768C6.00447 3.87054 6.07813 3.73438 6.15402 3.5692C6.22991 3.40402 6.29688 3.24777 6.35491 3.10045C6.41295 2.95313 6.48438 2.79241 6.5692 2.6183C6.65402 2.4442 6.74107 2.30134 6.83036 2.18973C6.91965 2.07813 7.03795 1.97322 7.18527 1.875C7.33259 1.77679 7.49331 1.72545 7.66741 1.72098C7.84152 1.71652 8.05357 1.74107 8.30357 1.79464L8.29018 1.83482C8.62947 1.75447 8.85715 1.71429 8.97322 1.71429H19.1652C19.8259 1.71429 20.3348 1.96429 20.692 2.46429C21.0491 2.96429 21.1295 3.54464 20.933 4.20536L17.2634 16.3393C16.942 17.4018 16.6228 18.0871 16.3058 18.3951C15.9888 18.7031 15.4152 18.8571 14.5848 18.8571H2.94643C2.70536 18.8571 2.53572 18.9241 2.4375 19.058C2.33929 19.2009 2.33482 19.3929 2.42411 19.6339C2.6384 20.2589 3.28125 20.5714 4.35268 20.5714H16.7143C16.9732 20.5714 17.2232 20.5022 17.4643 20.3638C17.7054 20.2254 17.8616 20.0402 17.933 19.808L21.9509 6.58929C22.0134 6.39286 22.0357 6.13839 22.0179 5.82589C22.3571 5.95982 22.6205 6.15179 22.808 6.40179ZM8.55804 6.42857C8.52232 6.54464 8.53125 6.64509 8.58482 6.72991C8.6384 6.81473 8.72768 6.85714 8.85268 6.85714H16.9955C17.1116 6.85714 17.2255 6.81473 17.3371 6.72991C17.4487 6.64509 17.5223 6.54464 17.558 6.42857L17.8393 5.57143C17.875 5.45536 17.8661 5.35491 17.8125 5.27009C17.7589 5.18527 17.6696 5.14286 17.5446 5.14286H9.40179C9.28572 5.14286 9.17188 5.18527 9.06027 5.27009C8.94866 5.35491 8.875 5.45536 8.83929 5.57143L8.55804 6.42857ZM7.44643 9.85714C7.41072 9.97322 7.41965 10.0737 7.47322 10.1585C7.52679 10.2433 7.61607 10.2857 7.74107 10.2857H15.8839C16 10.2857 16.1138 10.2433 16.2254 10.1585C16.3371 10.0737 16.4107 9.97322 16.4464 9.85714L16.7277 9C16.7634 8.88393 16.7545 8.78348 16.7009 8.69866C16.6473 8.61384 16.558 8.57143 16.433 8.57143H8.29018C8.17411 8.57143 8.06027 8.61384 7.94866 8.69866C7.83706 8.78348 7.7634 8.88393 7.72768 9L7.44643 9.85714Z" fill="#749DED"/>
</svg>

