<svg width="56" height="57" viewBox="0 0 56 57" fill="none" xmlns="http://www.w3.org/2000/svg">
<path d="M47.8333 10.6177H46.6666V8.28433C46.6666 7.35607 46.2979 6.46584 45.6415 5.80946C44.9851 5.15308 44.0949 4.78433 43.1666 4.78433H12.8333C11.905 4.78433 11.0148 5.15308 10.3584 5.80946C9.70204 6.46584 9.33329 7.35607 9.33329 8.28433V10.6177H8.16663C7.23837 10.6177 6.34813 10.9864 5.69175 11.6428C5.03538 12.2992 4.66663 13.1894 4.66663 14.1177V18.7843C4.66663 19.0938 4.78954 19.3905 5.00833 19.6093C5.22713 19.8281 5.52387 19.951 5.83329 19.951C6.14271 19.951 6.43946 19.8281 6.65825 19.6093C6.87704 19.3905 6.99996 19.0938 6.99996 18.7843V14.1177C6.99996 13.8082 7.12288 13.5115 7.34167 13.2927C7.56046 13.0739 7.85721 12.951 8.16663 12.951H9.33329V43.2843C9.33329 44.2126 9.70204 45.1028 10.3584 45.7592C11.0148 46.4156 11.905 46.7843 12.8333 46.7843H43.1666C44.0949 46.7843 44.9851 46.4156 45.6415 45.7592C46.2979 45.1028 46.6666 44.2126 46.6666 43.2843V12.951H47.8333C48.1427 12.951 48.4395 13.0739 48.6583 13.2927C48.877 13.5115 49 13.8082 49 14.1177V47.951C49 48.2604 48.877 48.5572 48.6583 48.776C48.4395 48.9948 48.1427 49.1177 47.8333 49.1177H8.16663C7.85721 49.1177 7.56046 48.9948 7.34167 48.776C7.12288 48.5572 6.99996 48.2604 6.99996 47.951V23.451C6.99996 23.1416 6.87704 22.8448 6.65825 22.626C6.43946 22.4072 6.14271 22.2843 5.83329 22.2843C5.52387 22.2843 5.22713 22.4072 5.00833 22.626C4.78954 22.8448 4.66663 23.1416 4.66663 23.451V47.951C4.66663 48.8793 5.03538 49.7695 5.69175 50.4259C6.34813 51.0823 7.23837 51.451 8.16663 51.451H47.8333C48.7616 51.451 49.6518 51.0823 50.3082 50.4259C50.9645 49.7695 51.3333 48.8793 51.3333 47.951V14.1177C51.3333 13.1894 50.9645 12.2992 50.3082 11.6428C49.6518 10.9864 48.7616 10.6177 47.8333 10.6177ZM12.8333 44.451C12.5239 44.451 12.2271 44.3281 12.0083 44.1093C11.7895 43.8905 11.6666 43.5938 11.6666 43.2843V8.28433C11.6666 7.97491 11.7895 7.67817 12.0083 7.45937C12.2271 7.24058 12.5239 7.11767 12.8333 7.11767H26.8333V44.451H12.8333ZM44.3333 43.2843C44.3333 43.5938 44.2104 43.8905 43.9916 44.1093C43.7728 44.3281 43.476 44.451 43.1666 44.451H29.1666V7.11767H43.1666C43.476 7.11767 43.7728 7.24058 43.9916 7.45937C44.2104 7.67817 44.3333 7.97491 44.3333 8.28433V43.2843ZM24.5 11.7843C24.5 12.0938 24.377 12.3905 24.1583 12.6093C23.9395 12.8281 23.6427 12.951 23.3333 12.951H15.1666C14.8572 12.951 14.5605 12.8281 14.3417 12.6093C14.1229 12.3905 14 12.0938 14 11.7843C14 11.4749 14.1229 11.1782 14.3417 10.9594C14.5605 10.7406 14.8572 10.6177 15.1666 10.6177H23.3333C23.6427 10.6177 23.9395 10.7406 24.1583 10.9594C24.377 11.1782 24.5 11.4749 24.5 11.7843ZM24.5 17.6177C24.5 17.9271 24.377 18.2238 24.1583 18.4426C23.9395 18.6614 23.6427 18.7843 23.3333 18.7843H15.1666C14.8572 18.7843 14.5605 18.6614 14.3417 18.4426C14.1229 18.2238 14 17.9271 14 17.6177C14 17.3082 14.1229 17.0115 14.3417 16.7927C14.5605 16.5739 14.8572 16.451 15.1666 16.451H23.3333C23.6427 16.451 23.9395 16.5739 24.1583 16.7927C24.377 17.0115 24.5 17.3082 24.5 17.6177ZM24.5 23.451C24.5 23.7604 24.377 24.0572 24.1583 24.276C23.9395 24.4948 23.6427 24.6177 23.3333 24.6177H15.1666C14.8572 24.6177 14.5605 24.4948 14.3417 24.276C14.1229 24.0572 14 23.7604 14 23.451C14 23.1416 14.1229 22.8448 14.3417 22.626C14.5605 22.4072 14.8572 22.2843 15.1666 22.2843H23.3333C23.6427 22.2843 23.9395 22.4072 24.1583 22.626C24.377 22.8448 24.5 23.1416 24.5 23.451ZM24.5 29.2843C24.5 29.5938 24.377 29.8905 24.1583 30.1093C23.9395 30.3281 23.6427 30.451 23.3333 30.451H15.1666C14.8572 30.451 14.5605 30.3281 14.3417 30.1093C14.1229 29.8905 14 29.5938 14 29.2843C14 28.9749 14.1229 28.6782 14.3417 28.4594C14.5605 28.2406 14.8572 28.1177 15.1666 28.1177H23.3333C23.6427 28.1177 23.9395 28.2406 24.1583 28.4594C24.377 28.6782 24.5 28.9749 24.5 29.2843ZM42 11.7843C42 12.0938 41.877 12.3905 41.6583 12.6093C41.4395 12.8281 41.1427 12.951 40.8333 12.951H32.6666C32.3572 12.951 32.0605 12.8281 31.8417 12.6093C31.6229 12.3905 31.5 12.0938 31.5 11.7843C31.5 11.4749 31.6229 11.1782 31.8417 10.9594C32.0605 10.7406 32.3572 10.6177 32.6666 10.6177H40.8333C41.1427 10.6177 41.4395 10.7406 41.6583 10.9594C41.877 11.1782 42 11.4749 42 11.7843ZM42 17.6177C42 17.9271 41.877 18.2238 41.6583 18.4426C41.4395 18.6614 41.1427 18.7843 40.8333 18.7843H32.6666C32.3572 18.7843 32.0605 18.6614 31.8417 18.4426C31.6229 18.2238 31.5 17.9271 31.5 17.6177C31.5 17.3082 31.6229 17.0115 31.8417 16.7927C32.0605 16.5739 32.3572 16.451 32.6666 16.451H40.8333C41.1427 16.451 41.4395 16.5739 41.6583 16.7927C41.877 17.0115 42 17.3082 42 17.6177ZM42 23.451C42 23.7604 41.877 24.0572 41.6583 24.276C41.4395 24.4948 41.1427 24.6177 40.8333 24.6177H32.6666C32.3572 24.6177 32.0605 24.4948 31.8417 24.276C31.6229 24.0572 31.5 23.7604 31.5 23.451C31.5 23.1416 31.6229 22.8448 31.8417 22.626C32.0605 22.4072 32.3572 22.2843 32.6666 22.2843H40.8333C41.1427 22.2843 41.4395 22.4072 41.6583 22.626C41.877 22.8448 42 23.1416 42 23.451ZM42 29.2843C42 29.5938 41.877 29.8905 41.6583 30.1093C41.4395 30.3281 41.1427 30.451 40.8333 30.451H32.6666C32.3572 30.451 32.0605 30.3281 31.8417 30.1093C31.6229 29.8905 31.5 29.5938 31.5 29.2843C31.5 28.9749 31.6229 28.6782 31.8417 28.4594C32.0605 28.2406 32.3572 28.1177 32.6666 28.1177H40.8333C41.1427 28.1177 41.4395 28.2406 41.6583 28.4594C41.877 28.6782 42 28.9749 42 29.2843Z" fill="#190AC3"/>
</svg>
