<svg width="24" height="24" viewBox="0 0 24 24" fill="none" xmlns="http://www.w3.org/2000/svg">
<path d="M2.61438 13.2765C2.61438 12.6675 2.7811 12.3505 3.09813 12.1085L12.8427 16.1297C12.3504 17.6314 12.7605 18.9862 13.2515 19.3667L3.29849 14.8199C3.01621 14.599 2.61438 14.0524 2.61438 13.2765Z" fill="white"/>
<path fill-rule="evenodd" clip-rule="evenodd" d="M2.87064 11.8104C2.9767 11.7295 3.11782 11.711 3.24117 11.7619L12.9857 15.7831C13.1671 15.858 13.2601 16.0601 13.199 16.2466C12.9727 16.937 12.9558 17.5883 13.0476 18.1029C13.1429 18.6377 13.3425 18.9628 13.4812 19.0704C13.6317 19.1871 13.6709 19.3978 13.5723 19.5608C13.4738 19.7237 13.2688 19.7871 13.0956 19.7079L3.14266 15.161C3.11585 15.1488 3.09059 15.1334 3.06738 15.1152C2.70588 14.8323 2.23938 14.1817 2.23938 13.2765C2.23938 12.9398 2.28515 12.6526 2.39388 12.4044C2.50509 12.1505 2.671 11.9628 2.87064 11.8104ZM3.29849 14.8199C3.01621 14.599 2.61438 14.0524 2.61438 13.2765C2.61438 12.6675 2.7811 12.3505 3.09813 12.1085L12.8427 16.1297C12.5006 17.1735 12.5943 18.1462 12.8481 18.7703C12.9595 19.044 13.1017 19.2508 13.2515 19.3667L3.29849 14.8199Z" fill="#A13FB9"/>
<path d="M21.3857 8.27838L11.9599 4.63327L3.04965 12.1444L13.2854 16.4522L21.3857 8.27838Z" fill="#A13FB9"/>
<path fill-rule="evenodd" clip-rule="evenodd" d="M11.7182 4.34658C11.8229 4.2583 11.9674 4.23413 12.0952 4.28354L21.5209 7.92863C21.6388 7.97427 21.7258 8.07633 21.7523 8.20006C21.7787 8.32377 21.741 8.45249 21.6519 8.54236L13.5518 16.7162C13.444 16.8249 13.281 16.8573 13.1399 16.7979L2.90417 12.49C2.78387 12.4394 2.69854 12.3299 2.67891 12.2008C2.65928 12.0718 2.70814 11.9418 2.80795 11.8577L11.7182 4.34658ZM11.9599 4.63328L21.3857 8.2784L13.2854 16.4523L3.04963 12.1444L11.9599 4.63328Z" fill="#A13FB9"/>
<path d="M15.9963 9.13431L11.8749 7.51579L11.0838 8.1946L15.1703 9.90601L15.9963 9.13431ZM21.3774 11.0739C20.4763 10.3398 20.6432 9.16343 21.3356 8.29577L12.9093 16.2548C12.3921 17.4979 12.8118 18.6998 13.2598 19.3626L21.3774 11.0739Z" fill="white"/>
<path fill-rule="evenodd" clip-rule="evenodd" d="M21.5895 8.0198C21.7344 8.15311 21.7515 8.37579 21.6287 8.52969C21.3216 8.91449 21.1462 9.34985 21.1337 9.74677C21.1217 10.131 21.2595 10.4942 21.6142 10.7832C21.696 10.8498 21.7459 10.9477 21.7517 11.0529C21.7577 11.1582 21.7191 11.261 21.6452 11.3363L13.5277 19.6249C13.4489 19.7053 13.3381 19.7462 13.226 19.7361C13.1138 19.7257 13.0122 19.6657 12.9491 19.5726C12.4567 18.8439 11.9819 17.5077 12.5631 16.1107C12.5833 16.0621 12.6136 16.0183 12.6518 15.9822L21.0782 8.02316C21.2212 7.88795 21.4446 7.88649 21.5895 8.0198ZM21.3356 8.29576L12.9093 16.2548C12.47 17.3107 12.7067 18.3368 13.0624 19.0281C13.1255 19.1507 13.1923 19.2626 13.2598 19.3626L21.3774 11.0739C21.2848 10.9986 21.2036 10.9185 21.1329 10.8346C20.7585 10.3896 20.6844 9.83621 20.823 9.29587C20.9126 8.94607 21.0915 8.60173 21.3356 8.29576Z" fill="#A13FB9"/>
<path fill-rule="evenodd" clip-rule="evenodd" d="M20.853 10.977C20.925 11.0514 20.9231 11.1701 20.8487 11.2421L15.1088 16.7984C15.0344 16.8704 14.9157 16.8685 14.8437 16.7941C14.7717 16.7197 14.7736 16.601 14.848 16.529L20.5879 10.9727C20.6623 10.9006 20.781 10.9026 20.853 10.977ZM20.5221 10.5126C20.5924 10.5885 20.5881 10.7072 20.5121 10.7776L16.8079 14.2149C16.732 14.2853 16.6134 14.2809 16.5429 14.205C16.4725 14.1291 16.4769 14.0104 16.5528 13.94L20.2569 10.5027C20.3329 10.4323 20.4516 10.4367 20.5221 10.5126ZM4.6429 14.319C4.68345 14.2237 4.79357 14.1793 4.88884 14.2199L8.46105 15.7403C8.55632 15.7809 8.6007 15.891 8.56014 15.9863C8.51959 16.0816 8.40947 16.1259 8.31418 16.0854L4.74199 14.5649C4.6467 14.5244 4.60234 14.4143 4.6429 14.319Z" fill="#A13FB9"/>
</svg>
