<svg width="42" height="43" viewBox="0 0 42 43" fill="none" xmlns="http://www.w3.org/2000/svg">
<path d="M9.78731 2.74267C9.76126 2.7455 9.7354 2.74988 9.70988 2.7558C8.86542 2.7906 8.06693 3.14978 7.48065 3.75854C6.89438 4.36731 6.5655 5.17876 6.5625 6.02392V28.9927H1.31512V29.6489H1.3125V32.2739C1.31529 33.1209 1.64551 33.934 2.23408 34.5432C2.82265 35.1523 3.62396 35.5102 4.47037 35.542C4.51099 35.5503 4.5523 35.5547 4.59375 35.5552H22.3099V40.2382L25.6738 38.2694L28.875 40.2802V35.5552H32.1562C32.9991 35.552 33.8084 35.2245 34.4164 34.6408C35.0243 34.057 35.3843 33.2616 35.4218 32.4196C35.4324 32.3718 35.4377 32.3229 35.4375 32.2739V9.30517H40.6875V6.02392C40.6843 5.18107 40.3569 4.37177 39.7731 3.76381C39.1893 3.15585 38.394 2.79584 37.5519 2.75842C37.5041 2.74775 37.4552 2.74247 37.4062 2.74267H9.85425C9.85075 2.74264 9.84725 2.74264 9.84375 2.74267C9.82495 2.74186 9.80612 2.74186 9.78731 2.74267ZM9.84375 4.05517C9.84725 4.0552 9.85075 4.0552 9.85425 4.05517C10.1126 4.05412 10.3686 4.1044 10.6073 4.20309C10.8461 4.30179 11.0628 4.44694 11.245 4.6301C11.4272 4.81327 11.5712 5.0308 11.6686 5.27007C11.766 5.50935 11.8149 5.76559 11.8125 6.02392V8.64892H11.823V9.30517H34.125V21.728C34.1245 21.7433 34.1245 21.7586 34.125 21.7739V32.2739C34.125 33.3764 33.2588 34.2427 32.1562 34.2427H28.875V31.1872C29.0273 31.1872 29.2162 31.1872 29.4236 31.2003C29.6467 31.2003 29.8804 31.2134 30.093 31.2003C30.198 31.2003 30.2991 31.1832 30.4133 31.1609C30.5274 31.1386 30.6666 31.1439 30.8766 30.9312C31.0879 30.7173 31.0839 30.5769 31.1049 30.4614C31.1272 30.3472 31.1312 30.2474 31.1364 30.1411C31.1429 29.9197 31.1412 29.6982 31.1312 29.477C31.1233 29.2539 31.1128 29.0334 31.1128 28.8772V28.8509C31.122 28.8509 31.1233 28.8378 31.1338 28.8378C31.2677 28.759 31.4619 28.6567 31.6588 28.549C31.8557 28.4414 32.0565 28.3312 32.2363 28.2157C32.3273 28.1585 32.4137 28.0945 32.4949 28.024C32.5815 27.9453 32.7036 27.8797 32.7797 27.5909C32.8545 27.3009 32.781 27.1827 32.7429 27.0725C32.7065 26.9703 32.6621 26.8712 32.6104 26.7759C32.5046 26.581 32.3917 26.3901 32.2717 26.2036C32.1536 26.0133 32.0368 25.8295 31.9594 25.693C31.9541 25.6799 31.9541 25.6799 31.9489 25.6734C31.9541 25.6602 31.9528 25.6576 31.9594 25.6471C32.0355 25.5106 32.1497 25.3255 32.2665 25.1352C32.3833 24.9436 32.5001 24.7494 32.5972 24.5604C32.6458 24.4659 32.6904 24.3714 32.7285 24.2611C32.7653 24.1509 32.8374 24.0314 32.7587 23.7427C32.6799 23.4539 32.5566 23.3883 32.4699 23.3122C32.3866 23.242 32.298 23.1784 32.2048 23.1219C32.0158 23.0066 31.8227 22.898 31.626 22.7964C31.4278 22.6914 31.2323 22.5903 31.0971 22.5129C31.0879 22.5129 31.0866 22.4997 31.0774 22.4997V22.4735C31.0747 22.3173 31.0813 22.0981 31.0879 21.8737C31.0931 21.6505 31.0984 21.4222 31.0879 21.2095C31.084 21.102 31.0717 20.9949 31.0511 20.8893C31.0288 20.7751 31.0314 20.636 30.8175 20.426C30.6049 20.216 30.4657 20.2186 30.3516 20.1976C30.245 20.1774 30.1371 20.1651 30.0287 20.1609C29.8161 20.1477 29.589 20.1622 29.3646 20.174C29.1414 20.1871 28.9209 20.1924 28.7648 20.1924H28.7372L28.7241 20.1687C28.644 20.0349 28.5443 19.8406 28.4366 19.6437C28.3327 19.448 28.2215 19.2563 28.1033 19.0689C28.0462 18.977 27.9821 18.8897 27.9116 18.8077C27.8329 18.721 27.7673 18.6016 27.4759 18.5255C27.1858 18.4494 27.0677 18.5255 26.9574 18.5596C26.8556 18.5959 26.7569 18.6402 26.6621 18.6922C26.4667 18.7977 26.2754 18.9107 26.0886 19.0308C25.8983 19.1502 25.7171 19.2657 25.5806 19.3432C25.5701 19.3432 25.5675 19.3563 25.5583 19.3563C25.5478 19.3563 25.5452 19.3432 25.5347 19.3432C25.3623 19.2447 25.1916 19.1432 25.0228 19.0387C24.8345 18.9204 24.6419 18.8092 24.4453 18.7053C24.3495 18.6547 24.2499 18.6117 24.1474 18.5767C24.0384 18.5399 23.919 18.469 23.6302 18.5465V18.5491C23.3415 18.6279 23.2759 18.7486 23.1998 18.8365C23.1296 18.9185 23.066 19.0059 23.0094 19.0977C22.8966 19.2775 22.7889 19.481 22.6839 19.6792C22.5789 19.876 22.4805 20.069 22.4018 20.2042C22.3965 20.2173 22.3926 20.2173 22.3873 20.2278H22.3584C22.2009 20.2278 21.9883 20.2278 21.7639 20.2147C21.5408 20.2147 21.3097 20.2015 21.0971 20.2147C20.9921 20.2147 20.8884 20.2317 20.7743 20.254C20.6601 20.2777 20.5209 20.2737 20.3109 20.4877C20.1009 20.7003 20.1036 20.8394 20.0826 20.9536C20.0638 21.0603 20.0532 21.1682 20.0511 21.2765C20.0432 21.4891 20.0484 21.7175 20.0563 21.9406C20.0642 22.1637 20.0747 22.3816 20.0747 22.5378V22.5667C20.0655 22.5667 20.0642 22.5798 20.0537 22.5798C19.9198 22.6585 19.7256 22.7609 19.5287 22.8685C19.3318 22.9762 19.1336 23.0864 18.9538 23.2019C18.862 23.259 18.7746 23.3231 18.6926 23.3935C18.606 23.4723 18.4839 23.5379 18.4078 23.8267C18.333 24.1167 18.4065 24.2349 18.4446 24.3451C18.4826 24.4554 18.5286 24.5485 18.5771 24.643C18.6769 24.8307 18.7976 25.0224 18.9158 25.2114C19.0339 25.4017 19.1507 25.588 19.2281 25.7232L19.2386 25.7469C19.2347 25.76 19.2334 25.76 19.2281 25.7679C19.152 25.9044 19.0378 26.092 18.921 26.2837C18.8037 26.4707 18.6934 26.662 18.5903 26.8572C18.5388 26.953 18.495 27.0526 18.459 27.1552C18.4223 27.2654 18.3501 27.3835 18.4288 27.6723C18.5076 27.961 18.6309 28.0267 18.7176 28.1028C18.8068 28.1789 18.8921 28.2367 18.9827 28.2931C19.1625 28.4073 19.3633 28.5136 19.5615 28.6186C19.7597 28.7236 19.9552 28.8247 20.0904 28.9034C20.0996 28.9034 20.1009 28.9165 20.1101 28.9165V28.9428C20.1127 29.1003 20.1062 29.3169 20.0996 29.5413C20.0944 29.7644 20.0917 29.9928 20.1022 30.2054C20.1088 30.3104 20.1154 30.4141 20.139 30.5283C20.1613 30.6425 20.1561 30.7816 20.37 30.9916C20.5839 31.2016 20.7218 31.199 20.8359 31.22C20.9501 31.241 21.0525 31.2502 21.1588 31.2541C21.3714 31.2672 21.6011 31.2541 21.8256 31.241C22.0067 31.2305 22.1668 31.2279 22.3099 31.2252V34.2427H7.19775C7.63382 33.6787 7.87185 32.9868 7.875 32.2739V6.02392C7.875 4.92142 8.74125 4.05517 9.84375 4.05517ZM12.4504 4.05517H37.4062C38.5088 4.05517 39.375 4.92142 39.375 6.02392V7.99267H34.8836C34.8463 7.9868 34.8085 7.98417 34.7708 7.9848C34.7382 7.98501 34.7058 7.98764 34.6736 7.99267H13.125V6.02392C13.125 5.28367 12.8678 4.60642 12.4504 4.05517ZM10.5 11.9302V13.2427H31.5V11.9302H10.5ZM10.5 15.8677V17.1802H31.5V15.8677H10.5ZM10.5 19.8052V21.1177H18.375V19.8052H10.5ZM27.1005 19.9587C27.1596 20.0598 27.2134 20.1517 27.2803 20.2737C27.3853 20.4654 27.4943 20.6649 27.5979 20.8407C27.6504 20.9287 27.7029 21.0127 27.762 21.094C27.8224 21.1754 27.8591 21.2594 28.0639 21.3762H28.0678C28.2739 21.4944 28.3644 21.4786 28.4642 21.4891C28.5653 21.5022 28.6611 21.5022 28.7621 21.5049C28.9669 21.5049 29.1939 21.4917 29.4105 21.4839H29.7754C29.7754 21.602 29.778 21.7109 29.7754 21.8514C29.7688 22.0679 29.7622 22.2924 29.7649 22.4971C29.7649 22.5995 29.7688 22.6953 29.7793 22.7964C29.7924 22.8974 29.7793 22.9893 29.9001 23.194C30.0208 23.3988 30.1074 23.4369 30.1901 23.4959C30.2728 23.5563 30.3529 23.6035 30.4408 23.656C30.618 23.7584 30.8214 23.8634 31.0131 23.9658C31.1364 24.0314 31.2296 24.0839 31.3307 24.143C31.2729 24.244 31.2191 24.3385 31.1469 24.458C31.0328 24.643 30.9159 24.836 30.8162 25.0145C30.765 25.1037 30.7177 25.1877 30.6771 25.2809C30.6377 25.3728 30.5813 25.4489 30.5826 25.6852C30.5826 25.924 30.6403 25.9975 30.6823 26.092C30.7243 26.1839 30.7716 26.2666 30.8227 26.3545C30.9251 26.5317 31.0432 26.7247 31.1588 26.9084C31.2336 27.0279 31.29 27.121 31.3491 27.2208C31.248 27.2799 31.1561 27.3363 31.0341 27.4045C30.8424 27.5069 30.6403 27.6145 30.4644 27.7195C30.3784 27.7689 30.2947 27.8223 30.2138 27.8797C30.1311 27.94 30.0457 27.9768 29.9289 28.1815C29.8108 28.3889 29.8239 28.4834 29.8134 28.5845C29.8029 28.6855 29.8003 28.7827 29.8003 28.885C29.8003 29.0898 29.8108 29.3142 29.8187 29.5308C29.8239 29.6712 29.8226 29.7802 29.8239 29.8983H29.4591C29.2425 29.8983 29.0154 29.8812 28.8107 29.8825C28.7083 29.8825 28.6138 29.8825 28.5141 29.8996C28.413 29.9127 28.3211 29.9009 28.1164 30.0177H28.1138C27.909 30.1372 27.8736 30.2199 27.8132 30.3025C27.7552 30.3851 27.7013 30.4706 27.6518 30.5585C27.5494 30.7357 27.4444 30.9365 27.342 31.1281C27.2764 31.2515 27.2252 31.3447 27.1674 31.4457C27.0664 31.388 26.9706 31.3381 26.8498 31.2633C26.6648 31.1504 26.4744 31.031 26.2959 30.9312C26.2085 30.8806 26.1187 30.8342 26.0269 30.7921C25.9337 30.7527 25.8602 30.6963 25.6213 30.6976C25.3851 30.6976 25.3102 30.7567 25.2171 30.7974C25.1252 30.8394 25.0386 30.8853 24.9506 30.9352C24.7734 31.0375 24.5857 31.1609 24.402 31.2764C24.2839 31.3512 24.1867 31.4024 24.087 31.4602C24.0279 31.3604 23.9741 31.2685 23.9072 31.1452C23.8022 30.9549 23.6932 30.758 23.5896 30.5808C23.5391 30.4941 23.4844 30.41 23.4255 30.3288C23.3651 30.2474 23.3297 30.1608 23.1236 30.044C22.9163 29.9259 22.827 29.939 22.7246 29.9285C22.6236 29.9154 22.5278 29.9154 22.4254 29.9154C22.2206 29.9154 21.9936 29.9272 21.777 29.9311H21.4121C21.4121 29.813 21.4095 29.708 21.4121 29.5689C21.4187 29.3523 21.4253 29.1279 21.4226 28.9231C21.4229 28.8223 21.4181 28.7215 21.4082 28.6212C21.3951 28.5202 21.4082 28.4283 21.2874 28.2235C21.1667 28.0188 21.0827 27.9834 21 27.9243C20.9181 27.8666 20.8336 27.8127 20.7467 27.7629C20.5695 27.6605 20.3661 27.5568 20.1744 27.4544C20.0511 27.3888 19.9579 27.3337 19.8568 27.2746C19.9146 27.1735 19.9684 27.079 20.0406 26.9596C20.1548 26.7745 20.2716 26.5842 20.3713 26.4057C20.4225 26.3165 20.4697 26.2299 20.5104 26.1367C20.5498 26.0448 20.6063 25.97 20.6049 25.7324C20.6049 25.4949 20.5472 25.4227 20.5052 25.3295C20.4629 25.2383 20.4161 25.1494 20.3647 25.063C20.2624 24.8859 20.1443 24.6955 20.0287 24.5118C19.9539 24.3937 19.9001 24.2992 19.8411 24.1994C19.9421 24.1404 20.034 24.0839 20.1561 24.017C20.3477 23.9133 20.5472 23.807 20.7231 23.702C20.811 23.6495 20.8937 23.597 20.9737 23.5379C21.0564 23.4775 21.1418 23.4395 21.2586 23.2321C21.3767 23.026 21.3636 22.9368 21.3741 22.8357C21.3846 22.7347 21.3872 22.6389 21.3872 22.5352C21.3872 22.3304 21.3767 22.106 21.3688 21.8894C21.3636 21.749 21.3649 21.64 21.3636 21.5219H21.7284C21.945 21.5219 22.1721 21.5364 22.3768 21.535C22.4792 21.535 22.575 21.5377 22.6761 21.5206C22.7771 21.5075 22.869 21.518 23.0737 21.3999C23.2785 21.2804 23.3139 21.1977 23.3743 21.115C23.4334 21.0324 23.4846 20.947 23.5357 20.8591C23.6381 20.6819 23.7431 20.4811 23.8455 20.2895C23.9111 20.1661 23.9623 20.0729 24.0201 19.9719L24.0227 19.9771C24.1237 20.0349 24.2182 20.0847 24.3377 20.1595C24.5227 20.2724 24.7131 20.3919 24.8916 20.4916C24.9808 20.5415 25.0674 20.5861 25.1606 20.6255C25.2538 20.6662 25.3286 20.7239 25.5662 20.7226C25.8024 20.7226 25.8773 20.6635 25.9704 20.6229C26.0623 20.5809 26.1489 20.5349 26.2369 20.485C26.4141 20.3827 26.6018 20.2593 26.7855 20.1438C26.9036 20.069 27.0008 20.0178 27.1005 19.96V19.9587ZM25.578 22.6585C25.2236 22.6585 25.095 22.8384 25.0097 22.9329C24.9369 23.0137 24.8731 23.1021 24.8194 23.1967C24.7183 23.373 24.6263 23.5543 24.5438 23.74C24.4571 23.9251 24.3771 24.1075 24.3141 24.2349C24.3101 24.248 24.3075 24.248 24.3049 24.2532H24.2891C24.1487 24.2755 23.9531 24.2992 23.7536 24.3267C23.5528 24.351 23.3535 24.386 23.1564 24.4317C23.0509 24.4552 22.9483 24.4904 22.8506 24.5367C22.7364 24.5919 22.533 24.6627 22.4254 25.0066C22.3178 25.3492 22.4424 25.5277 22.5041 25.6392C22.5671 25.7508 22.6288 25.8269 22.6944 25.903C22.8257 26.0553 22.9727 26.197 23.1197 26.3362C23.268 26.4766 23.4137 26.6118 23.5148 26.7115C23.5213 26.7115 23.5213 26.7247 23.5279 26.7247L23.5252 26.7417C23.5029 26.8835 23.4662 27.079 23.4307 27.2799C23.3921 27.4808 23.3636 27.6837 23.3454 27.8875C23.3389 27.9886 23.3323 28.0857 23.3481 28.213C23.3638 28.3404 23.3691 28.5595 23.6578 28.7695C23.9466 28.9795 24.1513 28.9139 24.276 28.8877C24.4007 28.8614 24.4926 28.8247 24.5831 28.7853C24.7669 28.7065 24.9454 28.6094 25.1213 28.5097C25.2984 28.4125 25.4704 28.3102 25.5964 28.2445C25.6029 28.2445 25.6042 28.2445 25.6121 28.2314C25.6187 28.2314 25.62 28.2314 25.6266 28.2445C25.7539 28.3089 25.9284 28.406 26.1069 28.5031C26.2841 28.5989 26.4626 28.696 26.6477 28.7722C26.7396 28.8102 26.8314 28.8457 26.9548 28.8693C27.0795 28.8929 27.2869 28.9585 27.5717 28.7446C27.8604 28.5307 27.8604 28.3128 27.8749 28.1855C27.8865 28.0773 27.8865 27.9682 27.8749 27.86C27.8545 27.6569 27.8239 27.4549 27.783 27.2549C27.7436 27.0541 27.7043 26.8585 27.6806 26.7168L27.678 26.6984C27.6832 26.6984 27.6846 26.6853 27.6911 26.6853C27.7909 26.5829 27.9353 26.4477 28.0809 26.306C28.2253 26.1642 28.3723 26.0185 28.5009 25.865C28.5653 25.7875 28.6269 25.714 28.6873 25.6012C28.749 25.4883 28.8711 25.3072 28.7595 24.9659C28.6479 24.6247 28.4419 24.5577 28.3264 24.5039C28.2288 24.4591 28.1267 24.4248 28.0219 24.4015C27.8247 24.3585 27.6253 24.3261 27.4247 24.3044C27.2239 24.2782 27.0283 24.2585 26.8879 24.2375H26.8708C26.8669 24.2244 26.8669 24.2244 26.8629 24.2217C26.7973 24.0944 26.7146 23.9107 26.6267 23.7269C26.541 23.5419 26.446 23.3615 26.3419 23.1862C26.2874 23.0934 26.2232 23.0067 26.1502 22.9276C26.0636 22.8344 25.9337 22.6585 25.578 22.6612V22.6585ZM10.5 23.7427V25.0552H17.0625V23.7427H10.5ZM25.5911 24.5905C25.6279 24.6693 25.6646 24.748 25.7014 24.8215C25.7434 24.9029 25.7841 24.979 25.8326 25.0578C25.8812 25.1352 25.8996 25.2114 26.0833 25.3452C26.2671 25.4778 26.3458 25.4739 26.4351 25.4962C26.523 25.5172 26.6083 25.5316 26.6976 25.5447C26.7789 25.5579 26.8656 25.567 26.9496 25.5775C26.8879 25.6366 26.8223 25.697 26.7658 25.7547C26.7018 25.8191 26.6405 25.8861 26.5821 25.9555C26.5243 26.0264 26.4626 26.0684 26.3931 26.2863C26.3248 26.5042 26.3537 26.5777 26.3602 26.6695C26.3668 26.7614 26.3786 26.848 26.3931 26.9399C26.4062 27.0213 26.4259 27.1053 26.4416 27.1906C26.3668 27.1499 26.292 27.1066 26.2185 27.0699C26.1394 27.0284 26.0584 26.9907 25.9757 26.957C25.8917 26.9229 25.83 26.8743 25.6042 26.8756C25.3785 26.8756 25.3155 26.9255 25.2328 26.9596C25.1488 26.995 25.0714 27.0357 24.9913 27.0777C24.9191 27.1158 24.8456 27.1591 24.7708 27.2011C24.7866 27.1158 24.8023 27.0279 24.8141 26.9465C24.8286 26.8559 24.8391 26.7693 24.8456 26.6774C24.8509 26.5855 24.8811 26.5134 24.8089 26.2968C24.738 26.0789 24.6711 26.0343 24.612 25.9647C24.5536 25.8974 24.4923 25.8326 24.4282 25.7705L24.2432 25.5933C24.3272 25.5802 24.4138 25.571 24.4939 25.5579C24.5844 25.5434 24.6671 25.529 24.7564 25.5054C24.8443 25.4844 24.9218 25.4844 25.1042 25.3505C25.2866 25.214 25.3076 25.1392 25.3549 25.0604C25.4021 24.9817 25.4402 24.9042 25.4809 24.8215C25.5163 24.7494 25.5557 24.6693 25.5911 24.5905ZM2.625 30.3052H6.5625V32.2739C6.5625 33.3764 5.69625 34.2427 4.59375 34.2427C3.49125 34.2427 2.625 33.3764 2.625 32.2739V30.3052ZM10.5 30.3052V31.6177H18.375V30.3052H10.5ZM26.25 32.4249C26.4141 32.5246 26.5807 32.627 26.7422 32.7097C26.8367 32.7582 26.9286 32.8015 27.0401 32.8383C27.1504 32.875 27.2711 32.9485 27.5599 32.8685H27.5625V37.9059L25.6961 36.7338L23.6224 37.9492V32.8475C23.6565 32.8606 23.6683 32.8777 23.7116 32.8895C24.0017 32.9656 24.1198 32.8895 24.2301 32.8554C24.3403 32.8173 24.4309 32.7727 24.5254 32.7228C24.6606 32.6519 24.7997 32.5627 24.9375 32.476V34.8989H26.25V32.4249Z" fill="white"/>
</svg>
