<svg width="25" height="25" viewBox="0 0 25 25" fill="none" xmlns="http://www.w3.org/2000/svg">
<path d="M6.5 15.125C5.99304 15.125 5.49747 14.9747 5.07597 14.693C4.65446 14.4113 4.32596 14.011 4.132 13.5426C3.93804 13.0742 3.88735 12.5588 3.98632 12.0616C4.0853 11.5644 4.3295 11.1077 4.68804 10.7493C5.04658 10.3909 5.50336 10.1469 6.0006 10.0481C6.49784 9.94934 7.0132 10.0002 7.48151 10.1944C7.94982 10.3885 8.35004 10.7172 8.63154 11.1388C8.91305 11.5604 9.0632 12.056 9.063 12.563C9.06221 13.2424 8.79189 13.8938 8.31138 14.3741C7.83086 14.8544 7.17941 15.1245 6.5 15.125ZM6.5 11C6.19087 11 5.88868 11.0917 5.63164 11.2634C5.37461 11.4352 5.17428 11.6793 5.05598 11.9649C4.93768 12.2505 4.90672 12.5647 4.96703 12.8679C5.02734 13.1711 5.1762 13.4496 5.39479 13.6682C5.61338 13.8868 5.89188 14.0357 6.19507 14.096C6.49827 14.1563 6.81253 14.1253 7.09813 14.007C7.38373 13.8887 7.62784 13.6884 7.79959 13.4314C7.97133 13.1743 8.063 12.8721 8.063 12.563C8.06273 12.1485 7.89798 11.7511 7.60492 11.4581C7.31185 11.165 6.91445 11.0003 6.5 11ZM9.5 21C9.36739 21 9.24021 20.9473 9.14645 20.8535C9.05268 20.7598 9 20.6326 9 20.5V19.5C9 18.837 8.73661 18.2011 8.26777 17.7322C7.79893 17.2634 7.16304 17 6.5 17C5.83696 17 5.20107 17.2634 4.73223 17.7322C4.26339 18.2011 4 18.837 4 19.5V20.5C4 20.6326 3.94732 20.7598 3.85355 20.8535C3.75979 20.9473 3.63261 21 3.5 21C3.36739 21 3.24021 20.9473 3.14645 20.8535C3.05268 20.7598 3 20.6326 3 20.5V19.5C3 18.5717 3.36875 17.6815 4.02513 17.0251C4.6815 16.3687 5.57174 16 6.5 16C7.42826 16 8.3185 16.3687 8.97487 17.0251C9.63125 17.6815 10 18.5717 10 19.5V20.5C10 20.6326 9.94732 20.7598 9.85355 20.8535C9.75979 20.9473 9.63261 21 9.5 21Z" fill="#5C50E4"/>
<path d="M9.5 20.36C9.4049 20.3599 9.31178 20.3327 9.23159 20.2816C9.15139 20.2305 9.08744 20.1576 9.04723 20.0714C9.00703 19.9852 8.99223 19.8893 9.00459 19.795C9.01695 19.7007 9.05594 19.6119 9.117 19.539L16.117 11.179C16.2036 11.0823 16.3243 11.0231 16.4538 11.0139C16.5832 11.0046 16.7112 11.046 16.8106 11.1294C16.9101 11.2127 16.9732 11.3315 16.9867 11.4605C17.0002 11.5896 16.963 11.7189 16.883 11.821L9.883 20.181C9.83611 20.237 9.77752 20.282 9.71135 20.313C9.64518 20.3439 9.57304 20.3599 9.5 20.36ZM5.5 9C5.36739 9 5.24021 8.94732 5.14645 8.85355C5.05268 8.75979 5 8.63261 5 8.5V4.5C5 4.36739 5.05268 4.24021 5.14645 4.14645C5.24021 4.05268 5.36739 4 5.5 4C5.63261 4 5.75979 4.05268 5.85355 4.14645C5.94732 4.24021 6 4.36739 6 4.5V8.5C6 8.63261 5.94732 8.75979 5.85355 8.85355C5.75979 8.94732 5.63261 9 5.5 9Z" fill="#5C50E4"/>
<path d="M21.5 5H4.5C4.36739 5 4.24021 4.94732 4.14645 4.85355C4.05268 4.75979 4 4.63261 4 4.5C4 4.36739 4.05268 4.24021 4.14645 4.14645C4.24021 4.05268 4.36739 4 4.5 4H21.5C21.6326 4 21.7598 4.05268 21.8536 4.14645C21.9473 4.24021 22 4.36739 22 4.5C22 4.63261 21.9473 4.75979 21.8536 4.85355C21.7598 4.94732 21.6326 5 21.5 5Z" fill="#5C50E4"/>
<path d="M20.5 16C20.3674 16 20.2402 15.9473 20.1464 15.8536C20.0527 15.7598 20 15.6326 20 15.5V4.5C20 4.36739 20.0527 4.24021 20.1464 4.14645C20.2402 4.05268 20.3674 4 20.5 4C20.6326 4 20.7598 4.05268 20.8536 4.14645C20.9473 4.24021 21 4.36739 21 4.5V15.5C21 15.6326 20.9473 15.7598 20.8536 15.8536C20.7598 15.9473 20.6326 16 20.5 16Z" fill="#5C50E4"/>
<path d="M21.5 16H15.5C15.3674 16 15.2402 15.9473 15.1464 15.8536C15.0527 15.7598 15 15.6326 15 15.5C15 15.3674 15.0527 15.2402 15.1464 15.1464C15.2402 15.0527 15.3674 15 15.5 15H21.5C21.6326 15 21.7598 15.0527 21.8536 15.1464C21.9473 15.2402 22 15.3674 22 15.5C22 15.6326 21.9473 15.7598 21.8536 15.8536C21.7598 15.9473 21.6326 16 21.5 16Z" fill="#5C50E4"/>
<path d="M17.5 8H11.5C11.3674 8 11.2402 7.94732 11.1464 7.85355C11.0527 7.75979 11 7.63261 11 7.5C11 7.36739 11.0527 7.24021 11.1464 7.14645C11.2402 7.05268 11.3674 7 11.5 7H17.5C17.6326 7 17.7598 7.05268 17.8536 7.14645C17.9473 7.24021 18 7.36739 18 7.5C18 7.63261 17.9473 7.75979 17.8536 7.85355C17.7598 7.94732 17.6326 8 17.5 8ZM17.5 10H9.5C9.36739 10 9.24021 9.94732 9.14645 9.85355C9.05268 9.75979 9 9.63261 9 9.5C9 9.36739 9.05268 9.24021 9.14645 9.14645C9.24021 9.05268 9.36739 9 9.5 9H17.5C17.6326 9 17.7598 9.05268 17.8536 9.14645C17.9473 9.24021 18 9.36739 18 9.5C18 9.63261 17.9473 9.75979 17.8536 9.85355C17.7598 9.94732 17.6326 10 17.5 10Z" fill="#5C50E4"/>
</svg>

