<svg width="42" height="43" viewBox="0 0 42 43" fill="none" xmlns="http://www.w3.org/2000/svg">
<g clip-path="url(#clip0_12925_211)">
<path d="M11.0539 34.0887H1.96437C1.47612 34.0887 1.3125 34.0887 1.3125 33.2041V31.0997C1.3125 30.9257 1.24336 30.7587 1.12029 30.6357C0.997215 30.5126 0.830295 30.4435 0.656247 30.4435C0.482199 30.4435 0.315279 30.5126 0.192208 30.6357C0.0691373 30.7587 -3.14787e-06 30.9257 -3.14787e-06 31.0997V33.2041C-0.0494668 33.4835 -0.0348139 33.7706 0.04285 34.0436C0.120514 34.3166 0.25916 34.5684 0.448329 34.7799C0.637498 34.9915 0.872249 35.1574 1.13487 35.265C1.39749 35.3726 1.68113 35.4192 1.96437 35.4012H11.0539C11.2279 35.4012 11.3948 35.3321 11.5179 35.209C11.641 35.0859 11.7101 34.919 11.7101 34.745C11.7101 34.5709 11.641 34.404 11.5179 34.2809C11.3948 34.1578 11.2279 34.0887 11.0539 34.0887ZM0.656247 29.0338C0.830295 29.0338 0.997215 28.9647 1.12029 28.8416C1.24336 28.7185 1.3125 28.5516 1.3125 28.3776V6.68458L21.175 6.7187V17.6606C21.175 17.8346 21.2441 18.0015 21.3672 18.1246C21.4903 18.2477 21.6572 18.3168 21.8312 18.3168C22.0053 18.3168 22.1722 18.2477 22.2953 18.1246C22.4184 18.0015 22.4875 17.8346 22.4875 17.6606V6.7187C22.4908 6.36379 22.353 6.0221 22.1044 5.76876C21.8558 5.51542 21.5168 5.37117 21.1619 5.3677H1.869L4.87025 2.8302H23.9452C24.2237 2.8302 24.4908 2.94082 24.6877 3.13774C24.8846 3.33465 24.9952 3.60172 24.9952 3.8802V17.1977C24.9952 17.3717 25.0644 17.5387 25.1875 17.6617C25.3105 17.7848 25.4774 17.854 25.6515 17.854C25.8255 17.854 25.9925 17.7848 26.1155 17.6617C26.2386 17.5387 26.3077 17.3717 26.3077 17.1977V3.8802C26.3077 3.25363 26.0588 2.65272 25.6158 2.20966C25.1727 1.76661 24.5718 1.5177 23.9452 1.5177H4.6305C4.47545 1.51761 4.3254 1.57248 4.207 1.67258L0.308872 4.97483C0.216717 5.06934 0.144683 5.18156 0.0971219 5.3047C0.0362002 5.40255 0.00265832 5.51496 -3.14787e-06 5.6302V28.3802C0.000691231 28.5538 0.0701381 28.72 0.193134 28.8425C0.316129 28.965 0.482652 29.0338 0.656247 29.0338Z" fill="white"/>
<path d="M23.7492 17.4261C23.9233 17.4261 24.0902 17.3569 24.2132 17.2339C24.3363 17.1108 24.4055 16.9439 24.4055 16.7698V5.40269C24.4048 4.88578 24.1993 4.39018 23.8342 4.02433C23.469 3.65849 22.9737 3.45219 22.4568 3.45057L6.05408 3.41644C5.88003 3.41644 5.71311 3.48558 5.59004 3.60865C5.46697 3.73172 5.39783 3.89864 5.39783 4.07269C5.39783 4.24674 5.46697 4.41366 5.59004 4.53673C5.71311 4.6598 5.88003 4.72894 6.05408 4.72894L22.4577 4.76307C22.6271 4.76353 22.7894 4.8311 22.9092 4.95097C23.0289 5.07085 23.0962 5.23328 23.0965 5.40269V16.7698C23.0964 16.9433 23.1651 17.1097 23.2874 17.2326C23.4097 17.3556 23.5758 17.4251 23.7492 17.4261ZM32.788 29.9193C32.6139 29.9193 32.447 29.9885 32.3239 30.1115C32.2008 30.2346 32.1317 30.4015 32.1317 30.5756V36.0321C32.1329 36.1601 32.1029 36.2866 32.0442 36.4004C31.675 37.1048 29.925 39.4052 22.925 39.4052C15.925 39.4052 14.175 37.1074 13.8013 36.4022C13.7428 36.2886 13.7127 36.1625 13.7138 36.0347V30.8538C13.7138 30.6798 13.6447 30.5128 13.5216 30.3898C13.3985 30.2667 13.2316 30.1976 13.0576 30.1976C12.8835 30.1976 12.7166 30.2667 12.5935 30.3898C12.4705 30.5128 12.4013 30.6798 12.4013 30.8538V36.0321C12.3995 36.3726 12.4799 36.7085 12.6358 37.0112C13.2256 38.1251 15.4 40.7177 22.925 40.7177C30.45 40.7177 32.6235 38.1277 33.2088 37.0147C33.366 36.7121 33.4471 36.3757 33.4451 36.0347V30.5756C33.4451 30.4893 33.4281 30.4039 33.395 30.3242C33.362 30.2446 33.3136 30.1722 33.2526 30.1112C33.1915 30.0503 33.1191 30.0019 33.0394 29.969C32.9596 29.9361 32.8742 29.9192 32.788 29.9193Z" fill="white"/>
<path d="M41.5512 24.3018L24.1894 18.5023C24.0569 18.4577 23.9133 18.4577 23.7808 18.5023L4.22366 24.7725C4.09308 24.8155 3.97926 24.8984 3.89823 25.0094C3.81721 25.1205 3.77305 25.2542 3.77199 25.3916C3.77093 25.5291 3.81301 25.6634 3.89231 25.7757C3.97161 25.8881 4.08413 25.9727 4.21404 26.0176L22.5015 32.1986C22.5692 32.2215 22.6401 32.2333 22.7115 32.2336C22.7867 32.2335 22.8613 32.2205 22.932 32.1951L36.3554 27.4019V30.5519C35.9029 30.6885 35.5063 30.9668 35.2238 31.3458C34.9414 31.7248 34.7881 32.1845 34.7865 32.6571V33.9801C34.7865 34.5668 35.0196 35.1294 35.4344 35.5443C35.8493 35.9591 36.4119 36.1921 36.9985 36.1921C37.5852 36.1921 38.1478 35.9591 38.5627 35.5443C38.9775 35.1294 39.2105 34.5668 39.2105 33.9801V32.6554C39.2093 32.187 39.0592 31.7311 38.7819 31.3537C38.5046 30.9762 38.1145 30.6966 37.6679 30.5554V26.9329L41.5625 25.5425C41.6912 25.4966 41.8023 25.4118 41.8804 25.2997C41.9585 25.1877 41.9997 25.054 41.9983 24.9175C41.9969 24.7809 41.9528 24.6482 41.8724 24.5378C41.7919 24.4274 41.679 24.3449 41.5494 24.3018H41.5512ZM37.8945 33.9801C37.8945 34.2187 37.7998 34.4475 37.6311 34.6162C37.4624 34.7849 37.2336 34.8796 36.995 34.8796C36.7565 34.8796 36.5277 34.7849 36.359 34.6162C36.1903 34.4475 36.0955 34.2187 36.0955 33.9801V32.6554C36.0955 32.5373 36.1188 32.4203 36.164 32.3112C36.2092 32.202 36.2755 32.1029 36.359 32.0194C36.4425 31.9358 36.5417 31.8696 36.6508 31.8244C36.7599 31.7792 36.8769 31.7559 36.995 31.7559C37.1132 31.7559 37.2301 31.7792 37.3393 31.8244C37.4484 31.8696 37.5476 31.9358 37.6311 32.0194C37.7146 32.1029 37.7809 32.202 37.8261 32.3112C37.8713 32.4203 37.8945 32.5373 37.8945 32.6554V33.9801ZM36.918 25.8076L22.9942 24.3053C22.9074 24.2938 22.8192 24.2999 22.7348 24.323C22.6504 24.3461 22.5715 24.3859 22.5027 24.44C22.4339 24.4941 22.3766 24.5614 22.3342 24.638C22.2918 24.7146 22.2652 24.7989 22.2559 24.8859C22.2465 24.9729 22.2547 25.0609 22.2799 25.1447C22.305 25.2285 22.3467 25.3065 22.4025 25.3739C22.4582 25.4414 22.5269 25.497 22.6045 25.5375C22.6821 25.5781 22.7669 25.6027 22.8542 25.6099L34.0795 26.8209L22.7045 30.8844L6.52229 25.4139L23.9768 19.8139L39.3339 24.944L36.918 25.8076Z" fill="white"/>
</g>
<defs>
<clipPath id="clip0_12925_211">
<rect width="42" height="42" fill="white" transform="translate(0 0.117676)"/>
</clipPath>
</defs>
</svg>
