<svg width="42" height="43" viewBox="0 0 42 43" fill="none" xmlns="http://www.w3.org/2000/svg">
<g clip-path="url(#clip0_12925_191)">
<path d="M29.8594 19.1489C29.8594 17.3967 29.3398 15.6838 28.3664 14.2268C27.3929 12.7699 26.0092 11.6344 24.3904 10.9638C22.7716 10.2932 20.9902 10.1178 19.2716 10.4596C17.5531 10.8014 15.9745 11.6452 14.7354 12.8842C13.4964 14.1232 12.6526 15.7018 12.3108 17.4204C11.9689 19.1389 12.1443 20.9203 12.8149 22.5391C13.4854 24.158 14.6209 25.5416 16.0778 26.5152C17.5348 27.4887 19.2476 28.0083 20.9999 28.0083C23.3487 28.0056 25.6006 27.0714 27.2615 25.4105C28.9225 23.7496 29.8567 21.4978 29.8594 19.1489ZM20.9999 26.6958C19.5073 26.6957 18.0482 26.2531 16.8071 25.4238C15.566 24.5945 14.5988 23.4159 14.0276 22.0369C13.4564 20.6578 13.307 19.1404 13.5982 17.6765C13.8894 16.2125 14.6082 14.8678 15.6636 13.8124C16.7191 12.757 18.0638 12.0382 19.5278 11.747C20.9917 11.4558 22.5091 11.6053 23.8881 12.1765C25.2671 12.7477 26.4458 13.715 27.275 14.9561C28.1043 16.1972 28.5469 17.6563 28.5469 19.1489C28.5447 21.1498 27.7488 23.0681 26.3339 24.4829C24.9191 25.8978 23.0008 26.6936 20.9999 26.6958Z" fill="white"/>
<path d="M27.0016 18.6885C27.1545 18.4163 27.2346 18.1094 27.2343 17.7973C27.2324 17.5567 27.1817 17.319 27.0854 17.0985C26.9891 16.8779 26.8492 16.6792 26.674 16.5142C26.4988 16.3492 26.2921 16.2214 26.0662 16.1385C25.8403 16.0556 25.6 16.0192 25.3597 16.0317L24.1513 16.0306C24.1757 15.8775 24.1836 15.7222 24.1749 15.5674C24.1165 15.0333 23.9618 13.6204 22.7685 13.0915C22.4436 12.9455 22.0847 12.8918 21.7313 12.9363C21.3778 12.9807 21.0435 13.1217 20.7649 13.3436C20.5021 13.5688 20.2999 13.856 20.1764 14.1793C20.053 14.5025 20.0124 14.8515 20.0582 15.1945C20.0603 15.2373 20.0631 15.4505 20.0631 15.4505C19.9321 15.7112 19.6246 16.2047 19.4261 16.5186C19.3129 16.4313 19.1741 16.3837 19.0311 16.3833H16.7343C16.5602 16.3833 16.3933 16.4524 16.2702 16.5755C16.1472 16.6986 16.078 16.8655 16.078 17.0395V22.1021C16.078 22.2761 16.1472 22.443 16.2702 22.5661C16.3933 22.6892 16.5602 22.7583 16.7343 22.7583H19.0311C19.1206 22.7582 19.209 22.7398 19.291 22.7041C19.373 22.6684 19.4468 22.6162 19.5078 22.5508C19.5808 22.5619 19.6545 22.5684 19.7284 22.5701C19.7387 22.5701 19.7491 22.57 19.7596 22.5698C19.927 22.673 20.1082 22.7519 20.2977 22.8044C20.4083 22.8342 20.5224 22.8493 20.637 22.8494L24.526 22.8506C25.0192 22.8534 25.4935 22.6606 25.8448 22.3145C26.1962 21.9683 26.3959 21.4969 26.4003 21.0037C26.6267 20.6922 26.7485 20.3169 26.7483 19.9319C26.7483 19.8908 26.7469 19.8499 26.7442 19.8095C26.9183 19.5241 27.0103 19.1962 27.01 18.8619C27.01 18.8036 27.0072 18.7457 27.0016 18.6885ZM18.3749 17.7086C18.3214 17.8526 18.2936 18.0048 18.2929 18.1584V21.2388C18.2931 21.3082 18.2987 21.3774 18.3098 21.4458H17.3905V17.6958H18.3749V17.7086ZM25.3597 18.3329H25.2203C25.3587 18.3478 25.4858 18.4161 25.5746 18.5233C25.6634 18.6305 25.7068 18.7681 25.6957 18.9068C25.6845 19.0456 25.6196 19.1745 25.5148 19.2661C25.4101 19.3577 25.2736 19.4048 25.1346 19.3974H24.8988C24.9703 19.3972 25.0411 19.4113 25.107 19.4389C25.1729 19.4665 25.2327 19.507 25.2827 19.5581C25.3327 19.6091 25.372 19.6697 25.3983 19.7361C25.4245 19.8026 25.4372 19.8737 25.4356 19.9451C25.434 20.0166 25.4181 20.087 25.3888 20.1522C25.3595 20.2174 25.3175 20.2761 25.2652 20.3248C25.2129 20.3735 25.1514 20.4113 25.0843 20.4358C25.0172 20.4604 24.9458 20.4713 24.8745 20.4679H24.552C24.6235 20.4678 24.6942 20.4821 24.76 20.5098C24.8259 20.5375 24.8855 20.5781 24.9354 20.6292C24.9853 20.6803 25.0245 20.7409 25.0506 20.8074C25.0767 20.8739 25.0893 20.9449 25.0876 21.0163C25.0858 21.0877 25.0698 21.1581 25.0405 21.2232C25.0111 21.2883 24.9691 21.3469 24.9167 21.3956C24.8644 21.4442 24.8028 21.4818 24.7357 21.5063C24.6686 21.5308 24.5973 21.5416 24.5259 21.5381L20.6384 21.5369C20.489 21.4783 20.3472 21.402 20.2161 21.3095C20.0464 21.251 19.8657 21.2312 19.6874 21.2513V18.1097C19.8565 18.0149 20.0197 17.9099 20.1761 17.7953C20.248 17.642 21.3756 15.9865 21.3756 15.6604V15.3216C21.3756 14.9877 21.2843 14.6098 21.5807 14.3718C21.671 14.2973 21.7807 14.2502 21.8969 14.2359C22.0131 14.2217 22.131 14.241 22.2366 14.2915C22.7144 14.5032 22.8219 15.2688 22.87 15.708C22.8006 16.2655 22.6692 16.8134 22.4782 17.3417L25.3597 17.3442C25.6709 17.3442 25.9218 17.5007 25.9218 17.7973C25.9182 17.9429 25.857 18.0811 25.7516 18.1815C25.6462 18.2819 25.5052 18.3364 25.3597 18.3329ZM31.8728 10.3926L31.3411 14.6837C31.3281 14.7875 31.3402 14.8928 31.3763 14.991C31.4123 15.0892 31.4714 15.1773 31.5484 15.248L33.025 16.6037C33.1444 16.7133 33.3001 16.7748 33.4621 16.7764C33.6242 16.778 33.7811 16.7196 33.9026 16.6124L35.3792 15.3111C35.4585 15.2412 35.5198 15.1532 35.5578 15.0546C35.5958 14.956 35.6094 14.8496 35.5974 14.7446L35.1005 10.3832C34.6779 10.504 34.2431 10.5769 33.8042 10.6007L34.2545 14.553L33.4777 15.2374L32.685 14.5097L33.1691 10.6025C32.7305 10.5812 32.2957 10.5108 31.8728 10.3926ZM29.7935 9.32695C29.3849 8.99982 29.0212 8.62018 28.712 8.19788C27.5659 8.53332 26.5692 9.25087 25.8874 10.2313C26.2714 10.4429 26.6413 10.6791 26.9948 10.9383C27.3182 10.4845 27.7356 10.1057 28.2185 9.8276C28.7015 9.54953 29.2386 9.37878 29.7935 9.32695Z" fill="white"/>
<path d="M38.2242 8.1992C37.9163 8.6194 37.5546 8.99735 37.1483 9.32335C38.1207 9.42005 39.0221 9.87573 39.6766 10.6014C40.331 11.3271 40.6915 12.2706 40.6875 13.2478V18.4414C40.6884 18.454 40.6843 18.4665 40.6761 18.4761C40.6679 18.4857 40.6562 18.4916 40.6436 18.4927H31.1484C31.1623 18.7099 31.1718 18.9283 31.1718 19.1489C31.1718 19.3696 31.1623 19.588 31.1484 19.8052H40.6436C41.0042 19.8038 41.3496 19.6594 41.6038 19.4038C41.8581 19.1481 42.0006 18.802 42 18.4414V13.2478C42.0015 12.1111 41.6343 11.0045 40.9535 10.0942C40.2727 9.18395 39.315 8.519 38.2242 8.1992ZM33.4682 9.30518C34.3767 9.30531 35.265 9.036 36.0205 8.53131C36.776 8.02662 37.3649 7.30922 37.7127 6.46983C38.0605 5.63045 38.1515 4.70678 37.9744 3.81563C37.7972 2.92449 37.3597 2.1059 36.7173 1.46339C36.0749 0.820875 35.2564 0.383298 34.3652 0.205993C33.4741 0.0286894 32.5504 0.119623 31.711 0.467293C30.8716 0.814964 30.1541 1.40376 29.6493 2.15921C29.1445 2.91466 28.8751 3.80284 28.8751 4.71143C28.8765 5.92921 29.3609 7.0967 30.2219 7.95786C31.083 8.81902 32.2504 9.30355 33.4682 9.30518ZM33.4682 1.43018C34.1171 1.43005 34.7516 1.62238 35.2913 1.98285C35.831 2.34332 36.2516 2.85573 36.5001 3.45529C36.7486 4.05485 36.8136 4.71462 36.6871 5.35117C36.5606 5.98771 36.2481 6.57243 35.7892 7.03139C35.3304 7.49035 34.7457 7.80292 34.1092 7.92958C33.4727 8.05624 32.8129 7.9913 32.2133 7.74297C31.6137 7.49464 31.1012 7.07407 30.7406 6.53446C30.38 5.99485 30.1876 5.36043 30.1876 4.71143C30.1887 3.84164 30.5346 3.00779 31.1496 2.39269C31.7646 1.7776 32.5984 1.43146 33.4682 1.43018ZM6.93509 32.7051L6.40329 36.9962C6.39044 37.1 6.40257 37.2053 6.43866 37.3035C6.47475 37.4016 6.53375 37.4897 6.61076 37.5605L8.08733 38.9162C8.20673 39.0258 8.36245 39.0873 8.5245 39.0889C8.68655 39.0905 8.84346 39.0321 8.965 38.9249L10.4416 37.6236C10.5209 37.5537 10.5821 37.4657 10.6201 37.3671C10.6581 37.2684 10.6717 37.1621 10.6598 37.0571L10.163 32.6957C9.74036 32.8165 9.30553 32.8894 8.86664 32.9132L9.31682 36.8654L8.5401 37.5499L7.74735 36.8222L8.23163 32.915C7.79296 32.8937 7.35806 32.8233 6.93509 32.7051Z" fill="white"/>
<path d="M13.2867 30.5117C12.9789 30.9319 12.6171 31.3098 12.2108 31.6358C13.1832 31.7326 14.0846 32.1883 14.739 32.9139C15.3934 33.6396 15.7538 34.5831 15.7499 35.5603V40.7539C15.7508 40.7665 15.7466 40.7789 15.7384 40.7885C15.7302 40.7981 15.7186 40.8041 15.706 40.8052H1.35596C1.34347 40.8039 1.33193 40.7979 1.3238 40.7883C1.31567 40.7788 1.31158 40.7664 1.31238 40.7539V35.5603C1.30846 34.5832 1.66888 33.6397 2.32325 32.914C2.97762 32.1883 3.87897 31.7326 4.85129 31.6359C4.44502 31.3098 4.08334 30.9319 3.77551 30.5117C2.68473 30.8315 1.7271 31.4965 1.04633 32.4068C0.365556 33.3171 -0.00162708 34.4236 -0.000117434 35.5603V40.7539C-0.000736334 41.1144 0.141692 41.4605 0.39592 41.7162C0.650147 41.9719 0.995411 42.1162 1.35596 42.1177H15.706C16.0666 42.1163 16.4119 41.9719 16.6662 41.7162C16.9205 41.4606 17.063 41.1145 17.0624 40.7539V35.5603C17.0639 34.4236 16.6967 33.317 16.0159 32.4067C15.3352 31.4964 14.3775 30.8315 13.2867 30.5117Z" fill="white"/>
<path d="M13.1249 27.0239C13.1249 26.1154 12.8555 25.2272 12.3507 24.4718C11.846 23.7164 11.1285 23.1276 10.2892 22.7799C9.44978 22.4322 8.52615 22.3412 7.63505 22.5184C6.74396 22.6956 5.92543 23.1331 5.28297 23.7755C4.64051 24.418 4.20298 25.2365 4.02569 26.1275C3.8484 27.0186 3.93932 27.9422 4.28696 28.7817C4.6346 29.6211 5.22334 30.3385 5.97874 30.8433C6.73414 31.3481 7.62226 31.6176 8.5308 31.6177C9.74876 31.6164 10.9165 31.132 11.7777 30.2708C12.639 29.4096 13.1235 28.2419 13.1249 27.0239ZM8.5308 30.3052C7.88185 30.3051 7.24748 30.1126 6.70793 29.752C6.16837 29.3914 5.74786 28.879 5.49956 28.2794C5.25126 27.6798 5.18632 27.0201 5.31297 26.3836C5.43961 25.7471 5.75215 25.1625 6.21105 24.7036C6.66996 24.2448 7.25462 23.9323 7.89111 23.8057C8.5276 23.6791 9.18733 23.7441 9.78689 23.9925C10.3864 24.2408 10.8989 24.6614 11.2594 25.201C11.6199 25.7406 11.8124 26.375 11.8124 27.0239C11.8114 27.8939 11.4654 28.728 10.8502 29.3432C10.2349 29.9583 9.40081 30.3043 8.5308 30.3052ZM31.8728 32.7051L31.3411 36.9962C31.3282 37.0999 31.3402 37.2053 31.3763 37.3035C31.4124 37.4016 31.4714 37.4897 31.5484 37.5605L33.025 38.9162C33.1444 39.0258 33.3001 39.0873 33.4622 39.0889C33.6242 39.0905 33.7811 39.0321 33.9027 38.9249L35.3792 37.6236C35.4585 37.5537 35.5198 37.4657 35.5578 37.3671C35.5958 37.2684 35.6094 37.1621 35.5974 37.0571L35.1005 32.6957C34.6779 32.8164 34.2431 32.8894 33.8042 32.9132L34.2545 36.8654L33.4777 37.5499L32.685 36.8222L33.1691 32.915C32.7305 32.8937 32.2957 32.8233 31.8728 32.7051Z" fill="white"/>
<path d="M38.2243 30.5117C37.9164 30.9319 37.5547 31.3099 37.1484 31.6359C38.1208 31.7326 39.0222 32.1882 39.6766 32.9139C40.3311 33.6396 40.6915 34.5831 40.6876 35.5603V40.7539C40.6885 40.7665 40.6844 40.779 40.6762 40.7886C40.668 40.7982 40.6563 40.8041 40.6437 40.8052H26.2937C26.2812 40.804 26.2696 40.798 26.2615 40.7884C26.2534 40.7788 26.2493 40.7665 26.2501 40.7539V35.5603C26.2462 34.5832 26.6066 33.6398 27.2609 32.9141C27.9153 32.1884 28.8166 31.7327 29.7889 31.6359C29.3826 31.3099 29.0209 30.9319 28.7131 30.5117C27.6223 30.8316 26.6647 31.4965 25.984 32.4068C25.3032 33.3171 24.9361 34.4236 24.9376 35.5603V40.7539C24.937 41.1145 25.0794 41.4606 25.3336 41.7163C25.5879 41.9719 25.9331 42.1163 26.2937 42.1177H40.6437C41.0043 42.1163 41.3496 41.972 41.6039 41.7163C41.8582 41.4606 42.0007 41.1145 42.0001 40.7539V35.5603C42.0016 34.4236 41.6344 33.3171 40.9536 32.4068C40.2728 31.4965 39.3151 30.8315 38.2243 30.5117Z" fill="white"/>
<path d="M38.0625 27.0239C38.0625 26.1154 37.7931 25.2272 37.2884 24.4718C36.7837 23.7164 36.0663 23.1276 35.2269 22.7799C34.3875 22.4322 33.4639 22.3412 32.5728 22.5184C31.6818 22.6956 30.8632 23.133 30.2208 23.7754C29.5783 24.4178 29.1407 25.2362 28.9634 26.1273C28.7861 27.0184 28.8769 27.942 29.2245 28.7814C29.5721 29.6208 30.1608 30.3383 30.9162 30.8431C31.6715 31.348 32.5596 31.6175 33.4681 31.6177C34.6861 31.6164 35.8539 31.132 36.7152 30.2708C37.5765 29.4096 38.0611 28.2419 38.0625 27.0239ZM33.4681 30.3052C32.8192 30.305 32.1849 30.1125 31.6453 29.7518C31.1058 29.3912 30.6854 28.8787 30.4371 28.2791C30.1889 27.6795 30.124 27.0198 30.2507 26.3834C30.3774 25.7469 30.6899 25.1623 31.1488 24.7035C31.6077 24.2447 32.1924 23.9322 32.8289 23.8057C33.4654 23.6791 34.1251 23.7441 34.7246 23.9925C35.3242 24.2409 35.8366 24.6614 36.1971 25.201C36.5576 25.7406 36.75 26.375 36.75 27.0239C36.7491 27.894 36.403 28.7281 35.7877 29.3433C35.1724 29.9585 34.3382 30.3044 33.4681 30.3052ZM6.93509 10.3926L6.40329 14.6836C6.39044 14.7874 6.40257 14.8928 6.43866 14.9909C6.47475 15.0891 6.53375 15.1772 6.61076 15.2479L8.08733 16.6037C8.20673 16.7133 8.36245 16.7748 8.5245 16.7764C8.68655 16.778 8.84346 16.7195 8.965 16.6123L10.4416 15.3111C10.5209 15.2412 10.5821 15.1532 10.6201 15.0546C10.6581 14.9559 10.6717 14.8496 10.6598 14.7445L10.163 10.3832C9.74036 10.5039 9.30553 10.5769 8.86664 10.6006L9.31682 14.5529L8.5401 15.2374L7.74735 14.5097L8.23163 10.6025C7.79296 10.5812 7.35806 10.5108 6.93509 10.3926Z" fill="white"/>
<path d="M1.35584 19.8052H10.8514C10.8375 19.588 10.8279 19.3696 10.8279 19.1489C10.8279 18.9283 10.8375 18.7099 10.8514 18.4927H1.35584C1.34334 18.4915 1.33181 18.4854 1.32368 18.4759C1.31555 18.4663 1.31145 18.4539 1.31226 18.4414V13.2478C1.30834 12.2707 1.66875 11.3272 2.32313 10.6015C2.9775 9.87587 3.87884 9.42016 4.85117 9.32338C4.4449 8.99737 4.08322 8.61941 3.77539 8.1992C2.68461 8.51902 1.72697 9.18398 1.0462 10.0943C0.365434 11.0046 -0.00174915 12.1111 -0.000239504 13.2478V18.4414C-0.000859274 18.802 0.141569 19.148 0.395797 19.4037C0.650024 19.6594 0.995288 19.8038 1.35584 19.8052ZM12.206 9.32691C12.7609 9.37869 13.2981 9.54943 13.7811 9.8275C14.2642 10.1056 14.6816 10.4844 15.005 10.9383C15.3585 10.6791 15.7284 10.4429 16.1123 10.2313C15.4305 9.25082 14.4338 8.53323 13.2876 8.19779C12.9783 8.62011 12.6146 8.99977 12.206 9.32691ZM8.53069 9.30518C9.43926 9.30524 10.3274 9.03588 11.0829 8.53115C11.8384 8.02642 12.4273 7.309 12.775 6.46961C13.1227 5.63021 13.2138 4.70655 13.0365 3.81543C12.8593 2.92431 12.4218 2.10575 11.7794 1.46327C11.137 0.820792 10.3184 0.383247 9.42733 0.205969C8.53622 0.028692 7.61256 0.119644 6.77314 0.467325C5.93372 0.815005 5.21626 1.4038 4.71148 2.15924C4.20669 2.91469 3.93727 3.80286 3.93727 4.71143C3.93868 5.92928 4.42307 7.09685 5.28419 7.95802C6.14531 8.81921 7.31284 9.30368 8.53069 9.30518ZM8.53069 1.43018C9.17967 1.43011 9.8141 1.6225 10.3537 1.98301C10.8934 2.34352 11.314 2.85596 11.5624 3.45552C11.8108 4.05508 11.8758 4.71485 11.7493 5.35137C11.6227 5.98789 11.3102 6.57258 10.8513 7.03151C10.3924 7.49043 9.80779 7.80297 9.17128 7.92961C8.53477 8.05624 7.875 7.99128 7.27541 7.74294C6.67582 7.4946 6.16334 7.07403 5.80278 6.53443C5.44222 5.99482 5.24977 5.36041 5.24977 4.71143C5.25081 3.84156 5.5968 3.00762 6.21186 2.3925C6.82691 1.77738 7.66082 1.43131 8.53069 1.43018Z" fill="white"/>
</g>
<defs>
<clipPath id="clip0_12925_191">
<rect width="42" height="42" fill="white" transform="translate(0 0.117676)"/>
</clipPath>
</defs>
</svg>
