<svg width="16" height="25" viewBox="0 0 16 25" fill="none" xmlns="http://www.w3.org/2000/svg">
<path fill-rule="evenodd" clip-rule="evenodd" d="M3 0.00561523C1.355 0.00561523 0 1.36248 0 3.00974V21.0345C0 22.6817 1.355 24.0386 3 24.0386H13C14.645 24.0386 16 22.6817 16 21.0345V3.00974C16 1.36248 14.645 0.00561523 13 0.00561523H3ZM3 2.00836H13C13.555 2.00836 14 2.45397 14 3.00974V21.0345C14 21.5902 13.555 22.0358 13 22.0358H3C2.445 22.0358 2 21.5902 2 21.0345V3.00974C2 2.45397 2.445 2.00836 3 2.00836ZM7 20.0331C7 19.4803 7.448 19.0317 8 19.0317C8.552 19.0317 9 19.4803 9 20.0331C9 20.5858 8.552 21.0345 8 21.0345C7.448 21.0345 7 20.5858 7 20.0331Z" fill="white"/>
</svg>
