<svg width="24" height="24" viewBox="0 0 24 24" fill="none" xmlns="http://www.w3.org/2000/svg">
<path d="M20.0002 10.999H22.0002C22.0002 5.869 18.1272 2 12.9902 2V4C17.0522 4 20.0002 6.943 20.0002 10.999Z" fill="white"/>
<path d="M12.9998 8C15.1028 8 15.9998 8.897 15.9998 11H17.9998C17.9998 7.775 16.2248 6 12.9998 6V8ZM16.4218 13.443C16.2296 13.2684 15.9771 13.1752 15.7176 13.1832C15.4581 13.1913 15.2118 13.2998 15.0308 13.486L12.6378 15.947C12.0618 15.837 10.9038 15.476 9.71179 14.287C8.51979 13.094 8.15879 11.933 8.05179 11.361L10.5108 8.967C10.6972 8.78613 10.8059 8.53982 10.814 8.28021C10.822 8.02059 10.7287 7.76804 10.5538 7.576L6.85879 3.513C6.68384 3.32036 6.44067 3.2035 6.18095 3.18726C5.92122 3.17102 5.66539 3.25666 5.46779 3.426L3.29779 5.287C3.1249 5.46052 3.02171 5.69145 3.00779 5.936C2.99279 6.186 2.70679 12.108 7.29879 16.702C11.3048 20.707 16.3228 21 17.7048 21C17.9068 21 18.0308 20.994 18.0638 20.992C18.3083 20.9783 18.5391 20.8747 18.7118 20.701L20.5718 18.53C20.7413 18.3325 20.8271 18.0768 20.811 17.8171C20.795 17.5573 20.6783 17.3141 20.4858 17.139L16.4218 13.443Z" fill="white"/>
</svg>
